<svg width="48" height="48" viewBox="0 0 48 48" fill="none" xmlns="http://www.w3.org/2000/svg">
<path fill-rule="evenodd" clip-rule="evenodd" d="M36.7875 44.2371C32.5995 44.2371 29.8923 42.2403 28.5723 39.6291V39.6291L32.2443 37.5027C33.2115 39.0819 34.4667 40.2411 36.6915 40.2411C38.5587 40.2411 39.7515 39.3075 39.7515 38.0187C39.7515 36.0795 37.1643 35.3211 35.3379 34.5387C32.0835 33.1539 29.9235 31.4139 29.9235 27.7395C29.9235 24.3579 32.5011 21.7803 36.5307 21.7803C39.3963 21.7803 41.4603 22.7787 42.9411 25.3875L39.4299 27.6435C38.6571 26.2587 37.8195 25.7115 36.5307 25.7115C35.2083 25.7115 34.3707 26.5491 34.3707 27.6435C34.3707 28.9971 35.2083 29.5443 37.1427 30.3819C41.1963 32.1195 44.2635 33.4851 44.2635 37.9539C44.2635 42.0147 41.0739 44.2371 36.7875 44.2371V44.2371ZM26.4001 37.4372C26.4001 42.11 23.5225 44.5796 19.5265 44.5796C15.9169 44.5796 13.7545 43.1996 12.6913 40.7996H12.6553H12.6385H12.6289L16.2985 38.234C17.0065 39.4892 17.6449 40.3796 19.1905 40.3796C20.6737 40.3796 21.6001 39.6284 21.6001 37.3748V21.5996H26.4001V37.4372ZM0 48H48V0H0V48Z" fill="white"/>
</svg>
