<svg width="48" height="48" viewBox="0 0 48 48" fill="none" xmlns="http://www.w3.org/2000/svg">
<path fill-rule="evenodd" clip-rule="evenodd" d="M24 0C37.2552 0 48 11.016 48 24.6072C48 35.4768 41.1312 44.6976 31.6008 47.9544C30.384 48.1968 29.952 47.4288 29.952 46.7736C29.952 45.9624 29.9808 43.3128 29.9808 40.02C29.9808 37.7256 29.2128 36.228 28.3512 35.4648C33.696 34.8552 39.312 32.7744 39.312 23.3232C39.312 20.6352 38.3808 18.4416 36.84 16.7184C37.0896 16.0968 37.9128 13.5936 36.6048 10.2048C36.6048 10.2048 34.5936 9.5448 30.012 12.7272C28.0944 12.1824 26.04 11.9088 24 11.8992C21.96 11.9088 19.908 12.1824 17.9928 12.7272C13.4064 9.5448 11.3904 10.2048 11.3904 10.2048C10.0872 13.5936 10.9104 16.0968 11.1576 16.7184C9.624 18.4416 8.6856 20.6352 8.6856 23.3232C8.6856 32.7504 14.2896 34.8624 19.62 35.484C18.9336 36.0984 18.312 37.1832 18.096 38.7744C16.728 39.4032 13.2528 40.4904 11.112 36.7296C11.112 36.7296 9.8424 34.3656 7.4328 34.1928C7.4328 34.1928 5.0928 34.1616 7.2696 35.688C7.2696 35.688 8.8416 36.444 9.9336 39.288C9.9336 39.288 11.3424 43.68 18.0192 42.192C18.0312 44.2488 18.0528 46.188 18.0528 46.7736C18.0528 47.424 17.6112 48.1848 16.4136 47.9568C6.876 44.7048 0 35.4792 0 24.6072C0 11.016 10.7472 0 24 0" fill="white"/>
</svg>
