<svg width="48" height="42" viewBox="0 0 48 42" fill="none" xmlns="http://www.w3.org/2000/svg">
<path fill-rule="evenodd" clip-rule="evenodd" d="M10.1706 6.03931L12.957 12.7936H6.55859L10.1706 6.03931ZM32.6012 17.738H39.7844L26.6348 32.1959L32.6012 17.738ZM20.9779 32.2305L7.43945 17.738H14.9971L20.9779 32.2305ZM18.1616 12.7935L15.1016 5.37671H32.4944L29.4344 12.7935H18.1616ZM27.3959 17.7378L23.8007 26.4526L20.2031 17.7378H27.3959ZM41.425 12.7933H34.6426L37.4674 5.94507L41.425 12.7933ZM47.4896 13.4464L40.64 1.04294C40.3616 0.607818 39.9872 0.400146 39.5576 0.400146C39.104 0.400146 38.5856 0.432286 38.048 0.432286H10.052C9.52158 0.432286 9.01038 0.412508 8.56158 0.412508C8.10558 0.412508 7.71198 0.575678 7.42638 1.04294L0.47598 14.2053C-0.25842 15.4093 -0.13362 16.8012 0.78558 17.8618L21.6512 40.1321C22.2656 40.8441 23.1128 41.2001 23.96 41.2001C24.8216 41.2001 25.6832 40.8367 26.3024 40.1049L47.2352 17.2364C48.152 16.1535 48.2552 14.6429 47.4896 13.4464V13.4464Z" fill="white"/>
</svg>
