<svg width="128" height="106" viewBox="0 0 128 106" fill="none" xmlns="http://www.w3.org/2000/svg">
<g clip-path="url(#clip0_243_4047)">
<path d="M72.2793 53L84.7347 67.3535L101.483 78.1445L104.403 53.0884L101.483 28.5917L84.4134 38.0724L72.2793 53Z" fill="#00832D"/>
<path d="M0 75.8184V97.1647C0 102.045 3.9206 105.998 8.76111 105.998H29.9338L34.3144 89.8628L29.9338 75.8184L15.405 71.402L0 75.8184Z" fill="#0066DA"/>
<path d="M29.9338 0.0022583L0 30.1815L15.405 34.5979L29.9338 30.1815L34.2413 16.3285L29.9338 0.0022583Z" fill="#E94235"/>
<path d="M29.9338 30.1816H0V75.8184H29.9338V30.1816Z" fill="#2684FC"/>
<path d="M120.611 12.7807L101.483 28.5917V78.1444L120.699 94.029C123.575 96.2961 127.781 94.2277 127.781 90.54V16.1961C127.781 12.4642 123.48 10.4179 120.611 12.7807ZM72.279 53V75.8184H29.9336V105.998H92.7216C97.5621 105.998 101.483 102.045 101.483 97.1647V78.1444L72.279 53Z" fill="#00AC47"/>
<path d="M92.7216 0.00238037H29.9336V30.1816H72.279V53L101.483 28.6064V8.83532C101.483 3.95512 97.5621 0.00238037 92.7216 0.00238037Z" fill="#FFBA00"/>
</g>
<defs>
<clipPath id="clip0_243_4047">
<rect width="127.781" height="106" fill="white"/>
</clipPath>
</defs>
</svg>
