<svg width="20" height="20" viewBox="0 0 20 20" fill="none" xmlns="http://www.w3.org/2000/svg">
<path d="M18.4443 14.9574L13.4631 9.979L18.4415 5.0006C19.3991 4.0458 19.3991 2.4918 18.4415 1.537C17.4839 0.573802 15.9355 0.576601 14.9779 1.5342L9.99671 6.5126L5.01551 1.5286C4.05791 0.571001 2.50671 0.576601 1.54911 1.5286C0.594308 2.4862 0.594308 4.0402 1.54911 4.995L6.53311 9.979L1.56031 14.949C0.602708 15.9066 0.602708 17.4606 1.56031 18.4126C2.03911 18.8942 2.66351 19.1322 3.29071 19.1322C3.92071 19.1322 4.54511 18.8942 5.02391 18.4154L9.99671 13.4426L14.9807 18.4238C15.4595 18.9026 16.0839 19.1406 16.7111 19.1406C17.3383 19.1406 17.9655 18.8998 18.4443 18.4238C19.4019 17.4662 19.4019 15.915 18.4443 14.9574Z" fill="white"/>
</svg>
