<svg width="284" height="376" viewBox="0 0 284 376" fill="none" xmlns="http://www.w3.org/2000/svg">
<path d="M109.383 267.582L103.984 291.668C103.105 295.592 100.679 298.995 97.2565 301.105C94.6199 302.731 93.0145 305.607 93.0145 308.705C93.0145 313.636 97.0118 317.633 101.943 317.633H111.084V267.582H109.383Z" fill="url(#paint0_linear_826_4111)"/>
<path d="M198.408 360.057C198.408 368.862 173.601 376 143 376C112.399 376 87.5916 368.862 87.5916 360.057C87.5916 351.252 198.408 351.252 198.408 360.057Z" fill="url(#paint1_linear_826_4111)"/>
<path d="M198.408 360.057C198.408 368.862 87.5916 368.862 87.5916 360.057C87.5916 351.252 198.408 351.252 198.408 360.057Z" fill="url(#paint2_linear_826_4111)"/>
<path d="M177.9 228.066V365.321C158.006 367.106 127.994 367.106 108.1 365.321V252.945C108.1 247.87 111.928 243.615 116.975 243.073C125.048 242.214 133.765 240.285 142.626 237.24C152.997 233.675 162.271 229.017 169.869 223.836C173.28 221.513 177.9 223.936 177.9 228.066V228.066Z" fill="url(#paint3_linear_826_4111)"/>
<path d="M177.898 228.064C177.898 223.935 173.28 221.511 169.869 223.837C162.273 229.016 152.999 233.673 142.627 237.239C136.178 239.457 129.806 241.073 123.702 242.125V272.698C123.702 275.586 125.002 278.166 127.045 279.897L177.898 330.75V228.064Z" fill="url(#paint4_linear_826_4111)"/>
<path d="M169.868 223.837C162.273 229.016 152.999 233.674 142.627 237.24C136.178 239.457 129.807 241.073 123.702 242.125V272.699C123.702 277.91 127.926 282.134 133.137 282.134C138.347 282.134 142.572 277.91 142.572 272.699V262.532C142.572 260.42 144.284 258.707 146.397 258.707C148.509 258.707 150.222 260.42 150.222 262.532V291.616C150.222 296.827 154.446 301.051 159.657 301.051C164.867 301.051 169.092 296.827 169.092 291.616V273.84C169.092 271.408 171.063 269.437 173.495 269.437C175.927 269.437 177.899 267.465 177.899 265.033V228.065C177.898 223.936 173.28 221.511 169.868 223.837V223.837Z" fill="url(#paint5_linear_826_4111)"/>
<path d="M147.429 247.191C162.735 241.758 173.704 231.863 174.792 223.355C173.276 222.704 171.444 222.763 169.869 223.837C162.273 229.016 152.999 233.673 142.627 237.239C133.766 240.286 125.047 242.211 116.974 243.074C114.672 243.32 112.631 244.345 111.084 245.862C117.246 251.85 132.056 252.648 147.429 247.191V247.191Z" fill="url(#paint6_linear_826_4111)"/>
<path d="M145.462 216.371V247.855C142.612 248.776 139.801 249.472 137.067 249.966V216.371C137.067 214.054 138.948 212.173 141.264 212.173C142.42 212.173 143.471 212.643 144.234 213.402C144.992 214.164 145.462 215.215 145.462 216.371V216.371Z" fill="url(#paint7_linear_826_4111)"/>
<path d="M108.1 337.695V365.321C127.994 367.105 158.006 367.105 177.9 365.321V337.695H108.1Z" fill="url(#paint8_linear_826_4111)"/>
<path fill-rule="evenodd" clip-rule="evenodd" d="M116.899 167.438C110.174 178.738 106.065 194.38 108 207.83C112.5 223 120.776 236.367 136.537 236.367C152.297 236.367 162.5 223.5 165.073 207.83C166.386 193.552 163.95 180.849 159.442 171.182C157.107 165.463 154.056 161.301 151.15 157.338C145.927 150.214 141.175 143.732 141.9 130C135.053 135.149 130.737 141.169 130.027 148.996C130.023 149.018 130.02 149.043 130.018 149.069L130.018 149.069C130.016 149.094 130.013 149.119 130.009 149.142C129.834 150.772 129.791 152.328 129.844 153.798C128.676 154.414 127.521 155.178 126.388 156.073C126.192 155.092 126.052 154.06 125.971 152.972L125.962 152.984C127.447 148.623 120.679 157.188 116.899 167.438Z" fill="url(#paint9_radial_826_4111)"/>
<path d="M154.014 213.593C154.014 222.095 147.122 228.986 138.621 228.986C130.119 228.986 123.228 222.095 123.228 213.593C123.228 205.092 130.119 183.478 138.621 183.478C147.122 183.478 154.014 205.092 154.014 213.593Z" fill="url(#paint10_linear_826_4111)"/>
<circle opacity="0.1" cx="35" cy="85" r="35" fill="#ECECEC"/>
<path fill-rule="evenodd" clip-rule="evenodd" d="M33.3804 74.3987C32.5425 74.3987 31.8297 74.981 31.6296 75.7658H38.3579C38.1578 74.981 37.445 74.3987 36.6071 74.3987H33.3804ZM40.2589 75.7658H42.7351C45.3614 75.7658 47.5 77.9304 47.5 80.5886C47.5 80.5886 47.425 81.7139 47.4 83.281C47.3974 83.405 47.3374 83.5265 47.2386 83.5999C46.6371 84.0442 46.0868 84.4113 46.0368 84.4366C43.9607 85.829 41.5483 86.8088 38.9782 87.2961C38.8107 87.329 38.6456 87.2417 38.5605 87.0923C37.8402 85.8442 36.4945 85.0316 34.9937 85.0316C33.503 85.0316 32.1448 85.8354 31.4032 87.0847C31.3169 87.2316 31.1543 87.3164 30.988 87.2847C28.4392 86.7961 26.0268 85.8177 23.9632 84.4493L22.7626 83.6139C22.6626 83.5506 22.6001 83.4367 22.6001 83.3101C22.5625 82.6645 22.5 80.5886 22.5 80.5886C22.5 77.9304 24.6386 75.7658 27.2649 75.7658H29.7286C29.9662 73.9304 31.5045 72.5 33.3804 72.5H36.6071C38.483 72.5 40.0213 73.9304 40.2589 75.7658ZM47.0748 86.019L47.0248 86.0444C44.4985 87.7406 41.4595 88.8671 38.2704 89.3355C37.8202 89.3988 37.3699 89.1076 37.2449 88.6519C36.9697 87.614 36.0818 86.9304 35.0188 86.9304H35.0063H34.9812C33.9182 86.9304 33.0303 87.614 32.7551 88.6519C32.6301 89.1076 32.1798 89.3988 31.7296 89.3355C28.5405 88.8671 25.5015 87.7406 22.9752 86.0444C22.9627 86.0317 22.8377 85.9558 22.7376 86.019C22.6251 86.0823 22.6251 86.2342 22.6251 86.2342L22.7126 92.6899C22.7126 95.3481 24.8387 97.5 27.465 97.5H42.5225C45.1488 97.5 47.2749 95.3481 47.2749 92.6899L47.3749 86.2342C47.3749 86.2342 47.3749 86.0823 47.2624 86.019C47.1999 85.9811 47.1248 85.9937 47.0748 86.019ZM35.9317 91.3228C35.9317 91.8545 35.519 92.2722 34.9937 92.2722C34.481 92.2722 34.0558 91.8545 34.0558 91.3228V89.6899C34.0558 89.1709 34.481 88.7406 34.9937 88.7406C35.519 88.7406 35.9317 89.1709 35.9317 89.6899V91.3228Z" fill="white"/>
<path opacity="0.1" fill-rule="evenodd" clip-rule="evenodd" d="M157.062 66.6022C168.853 60.9722 177 48.9375 177 35C177 15.67 161.33 0 142 0C122.67 0 107 15.67 107 35C107 40.8709 108.445 46.4042 111 51.2634V64.6991C111 70.6353 115.287 75.448 120.575 75.448C124.904 75.448 128.562 72.2224 129.746 67.795C132.337 68.7634 135.073 69.4336 137.913 69.7639V86.251C137.913 92.1872 142.2 97 147.488 97C152.775 97 157.062 92.1877 157.062 86.251V66.6022Z" fill="#FDE137"/>
<path fill-rule="evenodd" clip-rule="evenodd" d="M154 47H149V38.2513C149 35.8513 147.941 34.5125 146.042 34.5125C143.976 34.5125 142.75 35.9075 142.75 38.2513V47H137.75V30.75H142.75V32.5775C142.75 32.5775 144.319 29.825 147.854 29.825C151.39 29.825 154 31.9825 154 36.4475C154 40.9113 154 47 154 47ZM132.052 28.1512C130.366 28.1512 129 26.7737 129 25.075C129 23.3775 130.366 22 132.052 22C133.738 22 135.104 23.3775 135.104 25.075C135.105 26.7737 133.738 28.1512 132.052 28.1512ZM129 47H135.25V30.75H129V47Z" fill="#FAA037"/>
<circle opacity="0.1" cx="249" cy="85" r="35" fill="#ECECEC"/>
<path fill-rule="evenodd" clip-rule="evenodd" d="M243.862 98C253.296 98 258.456 90.3046 258.456 83.6318C258.456 83.4128 258.456 83.1949 258.441 82.9783C259.445 82.2645 260.311 81.3785 261 80.3644C260.065 80.773 259.071 81.0412 258.055 81.1594C259.125 80.5281 259.926 79.5361 260.31 78.3658C259.302 78.954 258.201 79.3688 257.052 79.5915C255.11 77.5584 251.861 77.46 249.795 79.3724C248.464 80.6056 247.897 82.4442 248.311 84.1979C244.187 83.9936 240.345 82.0762 237.74 78.922C236.379 81.2295 237.075 84.1807 239.329 85.6624C238.513 85.6391 237.714 85.4225 237 85.0311V85.0951C237.001 87.4986 238.722 89.5686 241.115 90.0449C240.36 90.248 239.568 90.2775 238.8 90.131C239.471 92.1887 241.397 93.5979 243.591 93.6385C241.775 95.0439 239.531 95.8069 237.221 95.8045C236.814 95.8032 236.406 95.7799 236 95.7319C238.346 97.2136 241.075 98 243.862 97.9963" fill="white"/>
<defs>
<linearGradient id="paint0_linear_826_4111" x1="104.502" y1="292.34" x2="110.419" y2="293.3" gradientUnits="userSpaceOnUse">
<stop stop-color="#F8F6FB"/>
<stop offset="1" stop-color="#EFDCFB"/>
</linearGradient>
<linearGradient id="paint1_linear_826_4111" x1="143" y1="355.176" x2="143" y2="370.808" gradientUnits="userSpaceOnUse">
<stop stop-color="#FFB9B9"/>
<stop offset="0.3003" stop-color="#FFB9B9"/>
<stop offset="0.6716" stop-color="#FFB9B9"/>
<stop offset="1" stop-color="#FFB9B9"/>
</linearGradient>
<linearGradient id="paint2_linear_826_4111" x1="143" y1="354.462" x2="143" y2="363.619" gradientUnits="userSpaceOnUse">
<stop stop-color="#EC8585"/>
<stop offset="0.3003" stop-color="#E28E8E"/>
<stop offset="0.6716" stop-color="#E28E8E"/>
<stop offset="1" stop-color="#E28E8E"/>
</linearGradient>
<linearGradient id="paint3_linear_826_4111" x1="108.1" y1="294.796" x2="177.9" y2="294.796" gradientUnits="userSpaceOnUse">
<stop stop-color="#F8F6FB"/>
<stop offset="1" stop-color="#EFDCFB"/>
</linearGradient>
<linearGradient id="paint4_linear_826_4111" x1="168.943" y1="309.207" x2="143.357" y2="226.694" gradientUnits="userSpaceOnUse">
<stop stop-color="#EFDCFB" stop-opacity="0"/>
<stop offset="0.4856" stop-color="#BAAAD6" stop-opacity="0.486"/>
<stop offset="1" stop-color="#8679B2"/>
</linearGradient>
<linearGradient id="paint5_linear_826_4111" x1="126.993" y1="261.991" x2="179.646" y2="261.991" gradientUnits="userSpaceOnUse">
<stop stop-color="#F8F6FB"/>
<stop offset="1" stop-color="#EFDCFB"/>
</linearGradient>
<linearGradient id="paint6_linear_826_4111" x1="144.265" y1="240.683" x2="147.303" y2="254.595" gradientUnits="userSpaceOnUse">
<stop stop-color="#EFDCFB" stop-opacity="0"/>
<stop offset="0.4856" stop-color="#BAAAD6" stop-opacity="0.486"/>
<stop offset="1" stop-color="#8679B2"/>
</linearGradient>
<linearGradient id="paint7_linear_826_4111" x1="137.626" y1="231.07" x2="144.727" y2="231.07" gradientUnits="userSpaceOnUse">
<stop stop-color="#8A7889"/>
<stop offset="1" stop-color="#6E566E"/>
</linearGradient>
<linearGradient id="paint8_linear_826_4111" x1="143" y1="346.097" x2="143" y2="371.395" gradientUnits="userSpaceOnUse">
<stop stop-color="#EFDCFB" stop-opacity="0"/>
<stop offset="0.4856" stop-color="#BAAAD6" stop-opacity="0.486"/>
<stop offset="1" stop-color="#8679B2"/>
</linearGradient>
<radialGradient id="paint9_radial_826_4111" cx="0" cy="0" r="1" gradientUnits="userSpaceOnUse" gradientTransform="translate(123.905 170.523) scale(46.3041 57.5377)">
<stop stop-color="#FFD945"/>
<stop offset="0.4169" stop-color="#FFD744"/>
<stop offset="0.6278" stop-color="#FFCF3F"/>
<stop offset="0.7926" stop-color="#FFC237"/>
<stop offset="0.9326" stop-color="#FFAF2C"/>
<stop offset="1" stop-color="#FFA325"/>
</radialGradient>
<linearGradient id="paint10_linear_826_4111" x1="128.614" y1="202.641" x2="161.46" y2="215.703" gradientUnits="userSpaceOnUse">
<stop stop-color="#F35227" stop-opacity="0"/>
<stop offset="1" stop-color="#F35227"/>
</linearGradient>
</defs>
</svg>
