<svg width="208" height="39" viewBox="0 0 208 39" fill="none" xmlns="http://www.w3.org/2000/svg">
<g clip-path="url(#clip0_207_4090)">
<path d="M26.5854 19.5L31.1667 24.781L37.3271 28.7512L38.4012 19.5325L37.3271 10.5195L31.0486 14.0077L26.5854 19.5Z" fill="#00832D"/>
<path d="M0 27.8954V35.7492C0 37.5448 1.44206 38.9991 3.22249 38.9991H11.0102L12.6214 33.0627L11.0102 27.8954L5.66621 26.2705L0 27.8954Z" fill="#0066DA"/>
<path d="M11.0102 0.000732422L0 11.1044L5.66621 12.7293L11.0102 11.1044L12.5946 6.00755L11.0102 0.000732422Z" fill="#E94235"/>
<path d="M11.0102 11.1045H0V27.8954H11.0102V11.1045Z" fill="#2684FC"/>
<path d="M44.363 4.70238L37.3273 10.5196V28.7513L44.3953 34.5956C45.4533 35.4297 47.0001 34.6687 47.0001 33.3119V5.95899C47.0001 4.58592 45.4184 3.83304 44.363 4.70238ZM26.5856 19.5V27.8955H11.0103V38.9992H34.1048C35.8852 38.9992 37.3273 37.5449 37.3273 35.7493V28.7513L26.5856 19.5Z" fill="#00AC47"/>
<path d="M34.1048 0.000976562H11.0103V11.1046H26.5856V19.5001L37.3272 10.5251V3.25083C37.3272 1.45529 35.8852 0.000976562 34.1048 0.000976562Z" fill="#FFBA00"/>
</g>
<path d="M154.553 26.3638H152.169V7.62357H154.553L161.005 19.0352H161.109L167.561 7.62357H169.945V26.3638H167.561V15.2401L167.665 12.0992H167.561L161.756 22.3854H160.357L154.553 12.0992H154.449L154.553 15.2401V26.3638ZM178.965 26.7826C177.099 26.7826 175.562 26.1368 174.352 24.8457C173.143 23.5546 172.538 21.9229 172.538 19.9513C172.538 17.9969 173.126 16.3741 174.3 15.083C175.475 13.7743 176.978 13.12 178.809 13.12C180.692 13.12 182.186 13.7396 183.292 14.9783C184.415 16.1999 184.976 17.9188 184.976 20.1345L184.95 20.3962H174.974C175.008 21.6526 175.423 22.6647 176.218 23.4324C177.013 24.2 177.963 24.584 179.068 24.584C180.589 24.584 181.781 23.8164 182.644 22.2807L184.769 23.3277C184.199 24.4094 183.404 25.2559 182.385 25.8665C181.383 26.4771 180.243 26.7826 178.965 26.7826ZM175.155 18.4071H182.437C182.368 17.5172 182.005 16.7843 181.349 16.2085C180.709 15.6155 179.846 15.3186 178.757 15.3186C177.859 15.3186 177.081 15.5979 176.425 16.1561C175.786 16.7144 175.363 17.4648 175.155 18.4071ZM192.984 26.7826C191.118 26.7826 189.581 26.1368 188.371 24.8457C187.162 23.5546 186.557 21.9229 186.557 19.9513C186.557 17.9969 187.145 16.3741 188.32 15.083C189.494 13.7743 190.997 13.12 192.828 13.12C194.712 13.12 196.206 13.7396 197.311 14.9783C198.434 16.1999 198.996 17.9188 198.996 20.1345L198.97 20.3962H188.993C189.028 21.6526 189.442 22.6647 190.237 23.4324C191.032 24.2 191.982 24.584 193.088 24.584C194.608 24.584 195.8 23.8164 196.664 22.2807L198.788 23.3277C198.218 24.4094 197.423 25.2559 196.404 25.8665C195.402 26.4771 194.262 26.7826 192.984 26.7826ZM189.175 18.4071H196.456C196.387 17.5172 196.024 16.7843 195.368 16.2085C194.729 15.6155 193.865 15.3186 192.777 15.3186C191.878 15.3186 191.101 15.5979 190.444 16.1561C189.805 16.7144 189.382 17.4648 189.175 18.4071ZM205.823 26.5732C204.787 26.5732 203.923 26.2501 203.232 25.6048C202.558 24.959 202.213 24.0605 202.196 22.9089V15.7374H199.967V13.5388H202.196V9.61276H204.579V13.5388H207.689V15.7374H204.579V22.1237C204.579 22.9784 204.743 23.5632 205.072 23.8773C205.4 24.1738 205.771 24.3223 206.186 24.3223C206.376 24.3223 206.557 24.3047 206.73 24.2699C206.907 24.2221 207.081 24.1609 207.249 24.0867L208 26.2329C207.378 26.4599 206.653 26.5732 205.823 26.5732ZM73.5668 18.4234V15.5623H83.0473C83.144 16.0666 83.2011 16.6665 83.2011 17.3164C83.2011 19.4622 82.6193 22.1184 80.7487 24.009C78.9279 25.9246 76.6022 26.9462 73.5178 26.9462C67.8036 26.9462 63 22.246 63 16.4731C63 10.7002 67.8036 6 73.5178 6C76.678 6 78.9279 7.25183 80.6224 8.88685L78.6247 10.9051C77.4108 9.75508 75.7678 8.8615 73.5178 8.8615C69.3462 8.8615 66.0844 12.2587 66.0844 16.4735C66.0844 20.6882 69.3462 24.0859 73.5178 24.0859C76.2233 24.0859 77.7655 22.9874 78.751 21.9912C79.5547 21.1798 80.0835 20.0151 80.2892 18.4238L73.5668 18.4234ZM97.648 20.2032C97.648 24.0859 94.6392 26.947 90.9479 26.947C87.2565 26.947 84.2478 24.0859 84.2478 20.2032C84.2478 16.2948 87.2565 13.4594 90.9479 13.4594C94.6396 13.4594 97.648 16.2944 97.648 20.2032ZM94.7153 20.2032C94.7153 17.776 92.9711 16.1161 90.9483 16.1161C88.9258 16.1161 87.1808 17.7764 87.1808 20.2032C87.1808 22.6038 88.925 24.29 90.9483 24.29C92.9711 24.29 94.7153 22.6042 94.7153 20.2032ZM112.264 20.2032C112.264 24.0859 109.255 26.947 105.564 26.947C101.873 26.947 98.8638 24.0859 98.8638 20.2032C98.8638 16.2948 101.873 13.4594 105.564 13.4594C109.256 13.4594 112.264 16.2944 112.264 20.2032ZM109.331 20.2032C109.331 17.776 107.587 16.1161 105.564 16.1161C103.542 16.1161 101.797 17.7764 101.797 20.2032C101.797 22.6038 103.542 24.29 105.564 24.29C107.587 24.29 109.331 22.6042 109.331 20.2032ZM126.274 13.8676V25.9753C126.274 30.9564 123.366 33 119.928 33C116.691 33 114.745 30.8031 114.012 29.0155L116.565 27.9424C117.02 29.0409 118.132 30.3434 119.928 30.3434C122.128 30.3434 123.493 28.964 123.493 26.3842V25.4134H123.392C122.734 26.2305 121.47 26.9457 119.877 26.9457C116.54 26.9457 113.48 24.0082 113.48 20.2277C113.48 16.4215 116.54 13.4586 119.877 13.4586C121.47 13.4586 122.734 14.1739 123.392 14.9661H123.493V13.8676H126.274ZM123.695 20.2282C123.695 17.8525 122.127 16.1156 120.13 16.1156C118.107 16.1156 116.413 17.8525 116.413 20.2282C116.413 22.578 118.107 24.29 120.13 24.29C122.128 24.29 123.695 22.578 123.695 20.2286V20.2282ZM131.241 6.78193V26.538H128.309V6.78193H131.241ZM142.567 22.4247L144.842 23.9571C144.109 25.0555 142.339 26.9457 139.28 26.9457C135.487 26.9457 132.655 23.9824 132.655 20.202C132.655 16.1917 135.512 13.4582 138.951 13.4582C142.415 13.4582 144.109 16.2428 144.665 17.7499L144.969 18.5162L136.043 22.2456C136.726 23.5992 137.788 24.2891 139.28 24.2891C140.771 24.29 141.808 23.5489 142.567 22.4247ZM135.563 19.9983L141.529 17.4955C141.201 16.6526 140.215 16.0649 139.051 16.0649C137.561 16.0645 135.487 17.3928 135.563 19.9983Z" fill="#00AC47"/>
<defs>
<clipPath id="clip0_207_4090">
<rect width="47" height="39" fill="white"/>
</clipPath>
</defs>
</svg>
