<svg width="82" height="19" viewBox="0 0 82 19" fill="none" xmlns="http://www.w3.org/2000/svg">
<path fill-rule="evenodd" clip-rule="evenodd" d="M32.9989 2.68125C31.2152 0.893749 28.8826 0 26.5272 0C24.1946 0 21.8392 0.893749 20.0555 2.68125C16.488 6.25625 16.488 12.0542 20.0555 15.6521C23.6229 19.2271 29.4086 19.2271 32.9989 15.6521C36.5663 12.0771 36.5663 6.25625 32.9989 2.68125ZM30.4148 13.0625C28.2652 15.2167 24.7892 15.2167 22.6624 13.0625C20.5128 10.9083 20.5128 7.425 22.6624 5.29375C24.8121 3.13958 28.288 3.13958 30.4148 5.29375C32.5415 7.425 32.5415 10.9083 30.4148 13.0625Z" fill="white"/>
<path fill-rule="evenodd" clip-rule="evenodd" d="M52.2083 2.68125C50.4246 0.893749 48.0921 0 45.7366 0C43.4041 0 41.0487 0.893749 39.2649 2.68125C35.6975 6.25625 35.6975 12.0542 39.2649 15.6521C42.8324 19.2271 48.618 19.2271 52.2083 15.6521C55.7758 12.0771 55.7758 6.25625 52.2083 2.68125ZM49.6242 13.0625C47.4746 15.2167 43.9987 15.2167 41.8719 13.0625C39.7223 10.9083 39.7223 7.425 41.8719 5.29375C44.0215 3.13958 47.4975 3.13958 49.6242 5.29375C51.751 7.425 51.751 10.9083 49.6242 13.0625Z" fill="white"/>
<path fill-rule="evenodd" clip-rule="evenodd" d="M3.65891 18.2875L4.57364 18.3333H18.2946L18.2488 17.4167C18.1345 15.9042 17.0597 14.8042 15.5504 14.7125L14.6357 14.6667H6.4031L17.3798 3.66667L17.3341 2.75C17.2655 1.2375 16.145 0.114583 14.6357 0.0458326L13.7209 0H0L0.0457357 0.916667C0.160077 2.40625 1.25775 3.52917 2.74419 3.62083L3.65891 3.66667H11.8915L0.914729 14.6667L0.960464 15.5833C1.05194 17.0958 2.14961 18.1958 3.65891 18.2875Z" fill="white"/>
<path fill-rule="evenodd" clip-rule="evenodd" d="M66.272 5.5C66.5921 6.05 66.6836 6.64583 66.7293 7.33333L66.7751 8.25V14.6667L66.8208 15.5833C66.9123 17.0729 68.01 18.1958 69.5193 18.2875L70.434 18.3333V8.25L70.4797 7.33333C70.5255 6.64583 70.6169 6.02708 70.9371 5.47708C71.5774 4.37708 72.7437 3.66667 74.0929 3.66667C75.4421 3.66667 76.6313 4.4 77.2716 5.5C77.5917 6.05 77.6832 6.66875 77.7061 7.33333L77.7518 8.25V14.6667L77.7976 15.5833C77.889 17.0958 78.9867 18.1958 80.496 18.2875L81.4107 18.3333V8.25V7.33333C81.4107 3.27708 78.1406 0 74.0929 0C71.8976 0 69.9538 0.962501 68.6045 2.475C67.2553 0.962501 65.3115 0 63.1162 0C61.6069 0 60.189 0.458333 59.0228 1.26042C58.3138 0.458333 56.7131 0 55.7983 0V18.3333L56.7131 18.2875C58.2452 18.1958 59.3429 17.0958 59.4115 15.5833L59.4573 14.6667V8.25L59.503 7.33333C59.5487 6.64583 59.6402 6.02708 59.9604 5.5C60.6007 4.4 61.7669 3.66667 63.1162 3.66667C64.4654 3.66667 65.6545 4.4 66.272 5.5Z" fill="white"/>
</svg>
