<svg width="61" height="22" viewBox="0 0 61 22" fill="none" xmlns="http://www.w3.org/2000/svg">
<g clip-path="url(#clip0_86_550)">
<path d="M19.4574 20.3077V6.94522L14.1251 20.3077H10.4357L5.10331 7.1158V20.3077H0.779785V0.150269H6.71743L12.338 13.7686L17.6704 0.150269H23.9251V20.3077H19.4574Z" fill="white"/>
</g>
<g clip-path="url(#clip1_86_550)">
<path d="M37.8229 18.5158C37.8229 19.0081 37.8301 19.428 37.8445 19.7755C37.8733 20.1085 37.8949 20.3329 37.9094 20.4487H34.7532C34.7388 20.3763 34.7172 20.2388 34.6883 20.0361C34.6739 19.8333 34.6667 19.6235 34.6667 19.4063C34.4217 19.7828 34.0398 20.094 33.521 20.3401C33.0166 20.5718 32.4401 20.6876 31.7916 20.6876C31.0278 20.6876 30.3216 20.55 29.673 20.275C29.0245 19.9854 28.4624 19.5944 27.9869 19.1022C27.5113 18.5955 27.1366 17.9946 26.8628 17.2996C26.6033 16.6047 26.4736 15.8445 26.4736 15.0193C26.4736 14.2229 26.6033 13.4845 26.8628 12.804C27.1222 12.109 27.4825 11.5082 27.9436 11.0014C28.4048 10.4947 28.9525 10.1038 29.5866 9.82866C30.2207 9.53908 30.9197 9.3943 31.6835 9.3943C32.1447 9.3943 32.541 9.43774 32.8724 9.52461C33.2039 9.59701 33.485 9.69111 33.7155 9.80694C33.9461 9.90829 34.1263 10.0241 34.256 10.1544C34.4001 10.2847 34.5082 10.4006 34.5802 10.5019V4.72495H37.8229V18.5158ZM29.7811 15.041C29.7811 15.4898 29.846 15.8807 29.9757 16.2137C30.1054 16.5468 30.2783 16.8291 30.4945 17.0607C30.7251 17.2779 30.9845 17.4444 31.2727 17.5602C31.5754 17.6761 31.8852 17.734 32.2023 17.734C32.5194 17.734 32.822 17.6761 33.1102 17.5602C33.4129 17.4444 33.6723 17.2779 33.8885 17.0607C34.1191 16.8291 34.2992 16.5468 34.4289 16.2137C34.5586 15.8807 34.6235 15.4898 34.6235 15.041C34.6235 14.5921 34.5586 14.2012 34.4289 13.8682C34.2992 13.5352 34.1191 13.2601 33.8885 13.0429C33.6723 12.8113 33.4129 12.6448 33.1102 12.5434C32.822 12.4276 32.5194 12.3697 32.2023 12.3697C31.8852 12.3697 31.5754 12.4276 31.2727 12.5434C30.9845 12.6448 30.7251 12.8113 30.4945 13.0429C30.2783 13.2601 30.1054 13.5352 29.9757 13.8682C29.846 14.2012 29.7811 14.5921 29.7811 15.041Z" fill="#FF8944"/>
</g>
<g clip-path="url(#clip2_86_550)">
<path d="M38.9761 20.3077V0.150269H51.6537V4.38645H43.4373V8.2246H50.8914V12.1765H43.4373V16.0431H51.682V20.3077H38.9761Z" fill="white"/>
</g>
<path d="M55 17.6494C55 17.2397 55.078 16.8592 55.2341 16.508C55.3902 16.1372 55.6049 15.8153 55.878 15.5421C56.1512 15.2689 56.4634 15.0543 56.8146 14.8982C57.1854 14.7421 57.5756 14.6641 57.9854 14.6641C58.3951 14.6641 58.7756 14.7421 59.1268 14.8982C59.4976 15.0543 59.8195 15.2689 60.0927 15.5421C60.3854 15.8153 60.6097 16.1372 60.7659 16.508C60.922 16.8592 61 17.2397 61 17.6494C61 18.0592 60.922 18.4494 60.7659 18.8202C60.6097 19.1714 60.3854 19.4836 60.0927 19.7567C59.8195 20.0299 59.4976 20.2445 59.1268 20.4006C58.7756 20.5763 58.3951 20.6641 57.9854 20.6641C57.5756 20.6641 57.1854 20.5763 56.8146 20.4006C56.4634 20.2445 56.1512 20.0299 55.878 19.7567C55.6049 19.4836 55.3902 19.1714 55.2341 18.8202C55.078 18.4494 55 18.0592 55 17.6494Z" fill="#FDD365"/>
<defs>
<clipPath id="clip0_86_550">
<rect width="24.7059" height="20.3077" fill="white"/>
</clipPath>
<clipPath id="clip1_86_550">
<rect width="12.3529" height="18.6154" fill="white" transform="translate(25.6211 3.38464)"/>
</clipPath>
<clipPath id="clip2_86_550">
<rect width="14.1176" height="20.3077" fill="white" transform="translate(37.9736)"/>
</clipPath>
</defs>
</svg>
